<mxfile host="app.diagrams.net" modified="2024-02-27T13:28:03.280Z" agent="Mozilla/5.0 (Macintosh; Intel Mac OS X 10_15_7) AppleWebKit/537.36 (KHTML, like Gecko) Chrome/122.0.0.0 Safari/537.36" etag="gl3wmZ9TDlTZ6irtyVeQ" version="23.1.6" type="github">
  <diagram name="第 1 页" id="xBWFfz1G4BuNmxcYdMNe">
    <mxGraphModel dx="1562" dy="858" grid="1" gridSize="10" guides="1" tooltips="1" connect="1" arrows="1" fold="1" page="1" pageScale="1" pageWidth="827" pageHeight="1169" math="0" shadow="0">
      <root>
        <mxCell id="0" />
        <mxCell id="1" parent="0" />
        <mxCell id="C-VIIlLOdMcTwQJin5L--5" value="" style="edgeStyle=orthogonalEdgeStyle;rounded=0;orthogonalLoop=1;jettySize=auto;html=1;" edge="1" parent="1" source="C-VIIlLOdMcTwQJin5L--1" target="C-VIIlLOdMcTwQJin5L--2">
          <mxGeometry relative="1" as="geometry" />
        </mxCell>
        <mxCell id="C-VIIlLOdMcTwQJin5L--1" value="日志收集" style="rounded=1;whiteSpace=wrap;html=1;fillColor=#dae8fc;strokeColor=#6c8ebf;" vertex="1" parent="1">
          <mxGeometry x="150" y="320" width="120" height="60" as="geometry" />
        </mxCell>
        <mxCell id="C-VIIlLOdMcTwQJin5L--6" value="" style="edgeStyle=orthogonalEdgeStyle;rounded=0;orthogonalLoop=1;jettySize=auto;html=1;" edge="1" parent="1" source="C-VIIlLOdMcTwQJin5L--2" target="C-VIIlLOdMcTwQJin5L--3">
          <mxGeometry relative="1" as="geometry" />
        </mxCell>
        <mxCell id="C-VIIlLOdMcTwQJin5L--2" value="日志解析" style="rounded=1;whiteSpace=wrap;html=1;fillColor=#d5e8d4;strokeColor=#82b366;" vertex="1" parent="1">
          <mxGeometry x="303" y="320" width="120" height="60" as="geometry" />
        </mxCell>
        <mxCell id="C-VIIlLOdMcTwQJin5L--7" value="" style="edgeStyle=orthogonalEdgeStyle;rounded=0;orthogonalLoop=1;jettySize=auto;html=1;" edge="1" parent="1" source="C-VIIlLOdMcTwQJin5L--3" target="C-VIIlLOdMcTwQJin5L--4">
          <mxGeometry relative="1" as="geometry" />
        </mxCell>
        <mxCell id="C-VIIlLOdMcTwQJin5L--3" value="语义提取" style="rounded=1;whiteSpace=wrap;html=1;fillColor=#f8cecc;strokeColor=#b85450;" vertex="1" parent="1">
          <mxGeometry x="457" y="320" width="120" height="60" as="geometry" />
        </mxCell>
        <mxCell id="C-VIIlLOdMcTwQJin5L--4" value="异常检测" style="rounded=1;whiteSpace=wrap;html=1;fillColor=#e1d5e7;strokeColor=#9673a6;" vertex="1" parent="1">
          <mxGeometry x="610" y="320" width="120" height="60" as="geometry" />
        </mxCell>
      </root>
    </mxGraphModel>
  </diagram>
</mxfile>
